# xmcd
#
# Track frame offsets:
#	150
#	11188
#	21498
#	31810
#	42350
#	52510
#	64423
#	75355
#	87315
#	99453
#	109733
#	120153
#	133568
#	144373
#
# Disc length: 2080 seconds
#
# Revision: 1
# Processed by: cddbd v1.5.1PL0 Copyright (c) Steve Scherf et al.
# Submitted via: CDex 1.50Beta5
#
DISCID=a9081e0e
DTITLE=さまざまなアーティスト - The Hit Parade 50`s-60`s
DYEAR=1900
DGENRE=Rock
TTITLE0=ガス・バッカス/恋はすばやく
TTITLE1=ニール・セダカ/おおキャロル
TTITLE2=パット・ブーン/砂に書いたラブレター
TTITLE3=コニー・フランシス/カラーに口紅
TTITLE4=デル・シャノン/太陽を探せ
TTITLE5=コニー・フランシス/渚のデート
TTITLE6=アネット/パイナップルプリンセス
TTITLE7=ヘレン・シャピロ/子供じゃないの
TTITLE8=ニール・セダカ/カレンダーガール
TTITLE9=ニール・セダカ/恋の日記
TTITLE10=リトル・エヴァ/ロコモーション
TTITLE11=ロイ・オービソン/オープリティウーマン
TTITLE12=アンソニー・パーキンス/月影の渚
TTITLE13=ジョニー・ティアフィールド/悲しき少年兵
EXTD=
EXTT0=
EXTT1=
EXTT2=
EXTT3=
EXTT4=
EXTT5=
EXTT6=
EXTT7=
EXTT8=
EXTT9=
EXTT10=
EXTT11=
EXTT12=
EXTT13=
PLAYORDER=
